<svg xmlns="http://www.w3.org/2000/svg" xmlns:xlink="http://www.w3.org/1999/xlink" width="40" zoomAndPan="magnify" viewBox="0 0 30 30.000001" height="40" preserveAspectRatio="xMidYMid meet" version="1.0"><defs><clipPath id="8e709a136c"><path d="M 11 24 L 19 24 L 19 28.226562 L 11 28.226562 Z M 11 24 " clip-rule="nonzero"/></clipPath><clipPath id="61124c37f9"><path d="M 0.679688 0.644531 L 28.988281 0.644531 L 28.988281 28.226562 L 0.679688 28.226562 Z M 0.679688 0.644531 " clip-rule="nonzero"/></clipPath></defs><path fill="#ffe578" d="M 15 7.585938 C 10.949219 7.585938 7.679688 10.867188 7.679688 14.90625 C 7.679688 17.816406 9.375 20.328125 11.839844 21.507812 L 11.839844 24.011719 L 18.164062 24.011719 L 18.164062 21.507812 C 20.621094 20.328125 22.328125 17.816406 22.328125 14.90625 C 22.320312 10.867188 19.039062 7.585938 15 7.585938 Z M 15 7.585938 " fill-opacity="1" fill-rule="nonzero"/><g clip-path="url(#8e709a136c)"><path fill="#d3d3d3" d="M 11.832031 24.019531 L 11.832031 26.613281 C 11.832031 27.460938 12.519531 28.148438 13.367188 28.148438 L 16.621094 28.148438 C 17.472656 28.148438 18.15625 27.460938 18.15625 26.613281 L 18.15625 24.019531 Z M 11.832031 24.019531 " fill-opacity="1" fill-rule="nonzero"/></g><g clip-path="url(#61124c37f9)"><path fill="#000000" d="M 15 7.34375 C 10.828125 7.34375 7.433594 10.738281 7.433594 14.90625 C 7.433594 17.75 9.058594 20.382812 11.597656 21.660156 L 11.597656 26.671875 C 11.597656 27.597656 12.355469 28.359375 13.285156 28.359375 L 16.726562 28.359375 C 17.65625 28.359375 18.417969 27.597656 18.417969 26.671875 L 18.417969 21.667969 C 20.945312 20.390625 22.578125 17.757812 22.578125 14.914062 C 22.5625 10.738281 19.167969 7.34375 15 7.34375 Z M 13.414062 16.585938 C 12.300781 16.457031 11.757812 16.117188 11.757812 15.285156 C 11.757812 14.550781 12.152344 14.210938 12.519531 14.210938 C 12.734375 14.210938 12.945312 14.324219 13.109375 14.519531 C 13.308594 14.769531 13.414062 15.140625 13.414062 15.59375 Z M 15 17.136719 C 15.378906 17.136719 15.75 17.128906 16.089844 17.113281 L 16.089844 23.777344 L 13.898438 23.777344 L 13.898438 17.113281 C 14.246094 17.128906 14.617188 17.136719 15 17.136719 Z M 17.914062 24.261719 L 17.914062 25.054688 L 12.074219 25.054688 L 12.074219 24.261719 Z M 12.074219 25.539062 L 17.914062 25.539062 L 17.914062 26.332031 L 12.074219 26.332031 Z M 16.71875 27.867188 L 13.277344 27.867188 C 12.664062 27.867188 12.164062 27.40625 12.082031 26.816406 L 17.90625 26.816406 C 17.835938 27.40625 17.332031 27.867188 16.71875 27.867188 Z M 18.050781 21.289062 C 17.972656 21.328125 17.914062 21.417969 17.914062 21.507812 L 17.914062 23.769531 L 16.574219 23.769531 L 16.574219 17.070312 C 17.835938 16.933594 18.714844 16.523438 18.714844 15.277344 C 18.714844 14.257812 18.085938 13.71875 17.472656 13.71875 C 17.105469 13.71875 16.75 13.894531 16.5 14.210938 C 16.234375 14.550781 16.089844 15.027344 16.089844 15.585938 L 16.089844 16.617188 C 15.765625 16.636719 15.394531 16.644531 15 16.644531 C 14.601562 16.644531 14.230469 16.636719 13.90625 16.617188 L 13.90625 15.585938 C 13.90625 15.027344 13.761719 14.550781 13.496094 14.210938 C 13.246094 13.894531 12.890625 13.71875 12.527344 13.71875 C 11.902344 13.71875 11.28125 14.25 11.28125 15.277344 C 11.28125 16.523438 12.164062 16.933594 13.421875 17.070312 L 13.421875 23.777344 L 12.074219 23.777344 L 12.074219 21.515625 C 12.074219 21.417969 12.015625 21.335938 11.9375 21.296875 C 9.496094 20.125 7.914062 17.621094 7.914062 14.914062 C 7.914062 11.011719 11.085938 7.835938 14.988281 7.835938 C 18.894531 7.835938 22.066406 11.011719 22.066406 14.914062 C 22.078125 17.613281 20.5 20.117188 18.050781 21.289062 Z M 16.574219 16.585938 L 16.574219 15.59375 C 16.574219 15.140625 16.679688 14.769531 16.882812 14.519531 C 17.042969 14.316406 17.253906 14.210938 17.472656 14.210938 C 17.835938 14.210938 18.230469 14.550781 18.230469 15.285156 C 18.230469 16.117188 17.695312 16.457031 16.574219 16.585938 Z M 15.242188 0.910156 L 15.242188 5.136719 C 15.242188 5.273438 15.136719 5.378906 15 5.378906 C 14.859375 5.378906 14.757812 5.273438 14.757812 5.136719 L 14.757812 0.910156 C 14.757812 0.773438 14.859375 0.667969 15 0.667969 C 15.136719 0.667969 15.242188 0.773438 15.242188 0.910156 Z M 5.214844 15.003906 L 0.921875 15.003906 C 0.785156 15.003906 0.679688 14.898438 0.679688 14.761719 C 0.679688 14.621094 0.785156 14.519531 0.921875 14.519531 L 5.214844 14.519531 C 5.351562 14.519531 5.457031 14.621094 5.457031 14.761719 C 5.457031 14.898438 5.351562 15.003906 5.214844 15.003906 Z M 29.316406 14.761719 C 29.316406 14.898438 29.210938 15.003906 29.074219 15.003906 L 24.78125 15.003906 C 24.644531 15.003906 24.539062 14.898438 24.539062 14.761719 C 24.539062 14.621094 24.644531 14.519531 24.78125 14.519531 L 29.074219 14.519531 C 29.203125 14.519531 29.316406 14.621094 29.316406 14.761719 Z M 8.25 7.777344 C 8.347656 7.875 8.347656 8.03125 8.25 8.117188 C 8.203125 8.167969 8.136719 8.191406 8.082031 8.191406 C 8.015625 8.191406 7.960938 8.167969 7.914062 8.117188 L 4.875 5.128906 C 4.777344 5.03125 4.777344 4.878906 4.875 4.789062 C 4.972656 4.691406 5.125 4.691406 5.214844 4.789062 Z M 25.121094 24.382812 C 25.21875 24.480469 25.21875 24.632812 25.121094 24.722656 C 25.074219 24.769531 25.007812 24.796875 24.953125 24.796875 C 24.886719 24.796875 24.832031 24.769531 24.78125 24.722656 L 21.746094 21.734375 C 21.648438 21.636719 21.648438 21.484375 21.746094 21.394531 C 21.84375 21.296875 21.996094 21.296875 22.085938 21.394531 Z M 8.25 21.394531 C 8.347656 21.492188 8.339844 21.644531 8.25 21.734375 L 5.214844 24.722656 C 5.164062 24.769531 5.109375 24.796875 5.042969 24.796875 C 4.980469 24.796875 4.914062 24.769531 4.875 24.722656 C 4.777344 24.625 4.785156 24.472656 4.875 24.382812 L 7.914062 21.394531 C 8.007812 21.296875 8.164062 21.296875 8.25 21.394531 Z M 21.738281 8.125 C 21.640625 8.03125 21.648438 7.875 21.738281 7.789062 L 24.773438 4.796875 C 24.871094 4.699219 25.027344 4.707031 25.113281 4.796875 C 25.210938 4.894531 25.203125 5.046875 25.113281 5.136719 L 22.078125 8.125 C 22.027344 8.175781 21.972656 8.199219 21.90625 8.199219 C 21.851562 8.199219 21.785156 8.175781 21.738281 8.125 Z M 11.46875 5.757812 C 11.515625 5.878906 11.460938 6.027344 11.339844 6.074219 C 11.304688 6.089844 11.273438 6.089844 11.242188 6.089844 C 11.144531 6.089844 11.054688 6.035156 11.015625 5.945312 L 10.246094 4.128906 C 10.199219 4.007812 10.253906 3.859375 10.375 3.8125 C 10.496094 3.761719 10.644531 3.820312 10.691406 3.941406 Z M 6.039062 18.671875 L 4.1875 19.421875 C 4.15625 19.4375 4.121094 19.4375 4.097656 19.4375 C 4 19.4375 3.914062 19.382812 3.871094 19.285156 C 3.824219 19.164062 3.878906 19.019531 4 18.96875 L 5.851562 18.21875 C 5.972656 18.171875 6.117188 18.226562 6.167969 18.347656 C 6.214844 18.484375 6.160156 18.621094 6.039062 18.671875 Z M 23.957031 10.851562 L 25.808594 10.097656 C 25.929688 10.050781 26.074219 10.105469 26.125 10.226562 C 26.171875 10.347656 26.117188 10.496094 25.996094 10.542969 L 24.144531 11.292969 C 24.113281 11.308594 24.082031 11.308594 24.054688 11.308594 C 23.957031 11.308594 23.871094 11.253906 23.828125 11.15625 C 23.773438 11.035156 23.835938 10.898438 23.957031 10.851562 Z M 19.734375 4.128906 L 18.964844 5.945312 C 18.925781 6.035156 18.835938 6.089844 18.738281 6.089844 C 18.707031 6.089844 18.675781 6.082031 18.640625 6.074219 C 18.519531 6.027344 18.464844 5.878906 18.511719 5.757812 L 19.28125 3.941406 C 19.328125 3.820312 19.472656 3.761719 19.597656 3.8125 C 19.734375 3.859375 19.789062 3.996094 19.734375 4.128906 Z M 3.871094 10.226562 C 3.921875 10.105469 4.066406 10.042969 4.1875 10.097656 L 6.039062 10.851562 C 6.160156 10.898438 6.222656 11.042969 6.167969 11.164062 C 6.125 11.261719 6.039062 11.316406 5.941406 11.316406 C 5.910156 11.316406 5.875 11.308594 5.851562 11.300781 L 4 10.550781 C 3.878906 10.484375 3.816406 10.347656 3.871094 10.226562 Z M 26.125 19.292969 C 26.082031 19.390625 25.996094 19.445312 25.898438 19.445312 C 25.867188 19.445312 25.832031 19.4375 25.808594 19.429688 L 23.957031 18.679688 C 23.835938 18.628906 23.773438 18.484375 23.828125 18.363281 C 23.878906 18.242188 24.023438 18.179688 24.144531 18.234375 L 25.996094 18.984375 C 26.117188 19.035156 26.171875 19.171875 26.125 19.292969 Z M 26.125 19.292969 " fill-opacity="1" fill-rule="nonzero"/></g></svg>